# xmcd
#
# Track frame offsets: 
#        150
#        18670
#        31697
#        43860
#        59952
#        72447
#        89015
#        104357
#        118435
#        134300
#
# Disc length: 1997 seconds
#
# Revision: 6
# Processed by: cddbd v1.4PL0 Copyright (c) Steve Scherf et al.
# Submitted via: ExactAudioCopy v0.90a11
#
DISCID=9b07cb0a
DTITLE=McEntire, Reba - Reba McEntire's Greatest Hits
DYEAR=1900
DGENRE=
TTITLE0=Just A Little Love
TTITLE1=He Broke Your Memory Last Night
TTITLE2=How Blue
TTITLE3=Somebody Should Leave
TTITLE4=Have I Got A Deal For You
TTITLE5=Only In My Mind
TTITLE6=Whoever's In New England
TTITLE7=Little Rock
TTITLE8=What Am I Going To Do About You
TTITLE9=One Promise Too Late
EXTD=MCA - 1987
EXTT0=
EXTT1=
EXTT2=
EXTT3=
EXTT4=
EXTT5=
EXTT6=
EXTT7=
EXTT8=
EXTT9=
PLAYORDER=
